<svg width="26" height="26" viewBox="0 0 26 26" fill="none" xmlns="http://www.w3.org/2000/svg">
<path d="M0 13C0 8.33074 0 5.9961 0.94463 4.22883C1.6905 2.83341 2.83341 1.6905 4.22883 0.94463C5.9961 0 8.33074 0 13 0C17.6693 0 20.0039 0 21.7712 0.94463C23.1666 1.6905 24.3095 2.83341 25.0554 4.22883C26 5.9961 26 8.33074 26 13C26 17.6693 26 20.0039 25.0554 21.7712C24.3095 23.1666 23.1666 24.3095 21.7712 25.0554C20.0039 26 17.6693 26 13 26C8.33074 26 5.9961 26 4.22883 25.0554C2.83341 24.3095 1.6905 23.1666 0.94463 21.7712C0 20.0039 0 17.6693 0 13Z" fill="#FF3300"/>
<path d="M18 14.8816V19H13.8426L9.97746 12.9945L18 14.8816Z" fill="white"/>
<path d="M11.1573 18.9336C9.66295 18.7338 8.3484 17.9788 7.41583 16.891L9.97746 12.9945L11.1573 18.9336Z" fill="white"/>
<path d="M9.97746 12.9945L6.1799 14.3488C6.0563 13.8937 6 13.4162 6 12.9277C6.00001 12.4838 6.05605 12.051 6.14589 11.6293L9.97746 12.9945Z" fill="white"/>
<path d="M18 11.1074L9.97746 12.9945L13.8426 7H18V11.1074Z" fill="white"/>
<path d="M9.97746 12.9945L7.41583 9.09805C8.3484 8.01018 9.66292 7.26638 11.1573 7.05547L9.97746 12.9945Z" fill="white"/>
</svg>
